<?xml version="1.0" encoding="UTF-8" standalone="no"?>
<!-- Created with Inkscape (http://www.inkscape.org/) -->

<svg
   width="26.458334mm"
   height="52.916668mm"
   viewBox="0 0 26.458334 52.916668"
   version="1.1"
   id="svg935"
   inkscape:version="1.1 (c68e22c387, 2021-05-23)"
   sodipodi:docname="gigi4.svg"
   xmlns:inkscape="http://www.inkscape.org/namespaces/inkscape"
   xmlns:sodipodi="http://sodipodi.sourceforge.net/DTD/sodipodi-0.dtd"
   xmlns="http://www.w3.org/2000/svg"
   xmlns:svg="http://www.w3.org/2000/svg">
  <sodipodi:namedview
     id="namedview937"
     pagecolor="#ffffff"
     bordercolor="#666666"
     borderopacity="1.0"
     inkscape:pageshadow="2"
     inkscape:pageopacity="0.0"
     inkscape:pagecheckerboard="0"
     inkscape:document-units="mm"
     showgrid="false"
     inkscape:zoom="2.811532"
     inkscape:cx="23.652585"
     inkscape:cy="112.03856"
     inkscape:window-width="1920"
     inkscape:window-height="1001"
     inkscape:window-x="-9"
     inkscape:window-y="41"
     inkscape:window-maximized="1"
     inkscape:current-layer="layer1" />
  <defs
     id="defs932" />
  <g
     inkscape:label="Livello 1"
     inkscape:groupmode="layer"
     id="layer1"
     transform="translate(-43.120071,-39.393642)">
    <rect
       style="fill:#ffffff;fill-opacity:1;fill-rule:evenodd;stroke-width:0.264583"
       id="rect1018"
       width="52.916668"
       height="79.375"
       x="43.120071"
       y="39.393642"
       ry="6.2476593e-06" />
    <rect
       style="fill:#eddbdb;fill-rule:evenodd;stroke-width:0.264583;fill-opacity:1"
       id="rect1325"
       width="26.458334"
       height="52.916668"
       x="43.120071"
       y="39.393642" />
    <circle
       style="fill:#0000ff;fill-opacity:1;stroke-width:1.00012"
       id="path350"
       cx="56.349239"
       cy="50.896568"
       r="9.260417" />
    <rect
       style="fill:#0000ff;fill-opacity:1;fill-rule:nonzero;stroke-width:1.00012"
       id="rect454"
       width="18.463715"
       height="11.570459"
       x="47.130299"
       y="51.157131"
       ry="1.2856847e-06" />
    <circle
       style="fill:#0000ff;fill-opacity:1;fill-rule:nonzero;stroke-width:1.00012"
       id="path29144"
       cx="50.222496"
       cy="62.934837"
       r="3.0868056" />
    <circle
       style="fill:#0000ff;fill-opacity:1;fill-rule:nonzero;stroke-width:1.00012"
       id="circle39175"
       cx="56.376659"
       cy="62.934837"
       r="3.0868056" />
    <circle
       style="fill:#0000ff;fill-opacity:1;fill-rule:nonzero;stroke-width:1.00012"
       id="circle39177"
       cx="62.501778"
       cy="62.934837"
       r="3.0868056" />
    <path
       style="opacity:1;fill:#ff0000;fill-opacity:1;fill-rule:nonzero;stroke-width:4.85998"
       id="path28754"
       sodipodi:type="arc"
       sodipodi:cx="56.477669"
       sodipodi:cy="55.24086"
       sodipodi:rx="4.2176752"
       sodipodi:ry="3.9711881"
       sodipodi:start="0"
       sodipodi:end="3.1415927"
       sodipodi:arc-type="slice"
       d="m 60.695344,55.24086 a 4.2176752,3.9711881 0 0 1 -2.108838,3.43915 4.2176752,3.9711881 0 0 1 -4.217675,0 4.2176752,3.9711881 0 0 1 -2.108837,-3.43915 h 4.217675 z" />
    <path
       style="opacity:1;fill:#00ffff;fill-opacity:1;fill-rule:nonzero;stroke-width:23.7766"
       id="path28876"
       sodipodi:type="arc"
       sodipodi:cx="53.54113"
       sodipodi:cy="48.737896"
       sodipodi:rx="1.7528003"
       sodipodi:ry="2.5744252"
       sodipodi:start="0"
       sodipodi:end="6.2746702"
       sodipodi:arc-type="slice"
       d="m 55.29393,48.737896 a 1.7528003,2.5744252 0 0 1 -1.749069,2.574419 1.7528003,2.5744252 0 0 1 -1.756515,-2.563458 1.7528003,2.5744252 0 0 1 1.74159,-2.585334 1.7528003,2.5744252 0 0 1 1.763931,2.552452 l -1.752737,0.02192 z" />
    <path
       style="opacity:1;fill:#00ffff;fill-opacity:1;fill-rule:nonzero;stroke-width:23.7766"
       id="path29120"
       sodipodi:type="arc"
       sodipodi:cx="59.292511"
       sodipodi:cy="48.737896"
       sodipodi:rx="1.7528003"
       sodipodi:ry="2.5744252"
       sodipodi:start="0"
       sodipodi:end="6.2746702"
       sodipodi:arc-type="slice"
       d="m 61.045311,48.737896 a 1.7528003,2.5744252 0 0 1 -1.749069,2.574419 1.7528003,2.5744252 0 0 1 -1.756515,-2.563458 1.7528003,2.5744252 0 0 1 1.74159,-2.585334 1.7528003,2.5744252 0 0 1 1.763931,2.552452 l -1.752737,0.02192 z" />
    <path
       style="fill:#00e700;fill-opacity:1;fill-rule:nonzero;stroke:none;stroke-width:0.264583;stroke-opacity:1"
       id="path3426"
       d="m 59.22349,72.05197 c 0.0496,-0.03463 0.06599,-0.09607 0.10693,-0.137301 0.02525,-0.02543 0.05991,-0.04 0.08712,-0.06337 0.03086,-0.0265 0.05445,-0.06085 0.08658,-0.08583 0.06313,-0.04909 0.13667,-0.08353 0.203646,-0.127366 0.137483,-0.07393 0.256531,-0.174625 0.377903,-0.269843 0.136639,-0.107199 0.01862,0.01449 0.130899,-0.112002 1.34844,-0.872974 -3.627558,2.044158 -2.205779,1.258975 0.1764,-0.106366 0.362326,-0.192041 0.564717,-0.234742 0.262496,-0.04372 0.528246,-0.04755 0.793146,-0.03036 0.318306,0.03399 0.610699,0.156116 0.891614,0.300343 0.222585,0.133009 0.441678,0.272503 0.655077,0.419545 0.191942,0.134013 0.381412,0.271478 0.572091,0.407334 0.139905,0.10954 0.294214,0.19634 0.422585,0.319204 0.165404,0.182591 0.317977,0.372927 0.456745,0.575992 0.173487,0.242957 0.315118,0.503428 0.436634,0.774816 0.123997,0.238792 0.0389,0.349764 0.02553,0.581263 -0.04252,0.64959 -0.101995,1.298143 -0.187664,1.943929 -0.05467,0.462863 -0.136101,0.921814 -0.245163,1.375193 -0.0934,0.334952 -0.341649,0.584617 -0.572986,0.833867 -0.27391,0.27959 -0.568566,0.538479 -0.849165,0.811356 -0.04057,0.04184 -0.07844,0.0864 -0.121712,0.125513 -0.04467,0.04038 -0.09499,0.07423 -0.141542,0.112485 -0.06789,0.0558 -0.256722,0.222105 -0.326573,0.267456 -0.073,0.04739 -0.305343,0.167732 -0.229927,0.124192 0.790445,-0.456335 1.583396,-0.908422 2.375094,-1.362634 -1.366296,0.697811 -2.804919,1.301559 -4.017753,2.253698 -0.228154,0.185354 -0.411401,0.421061 -0.557386,0.673597 -0.147267,0.192107 -0.317448,0.362299 -0.475218,0.546109 -0.285075,0.330799 -0.496652,0.715823 -0.75186,1.068579 -0.262937,0.39213 -0.521295,0.785382 -0.762262,1.191154 -0.199153,0.324638 -0.337166,0.677739 -0.468829,1.032546 -0.115856,0.289782 -0.267104,0.559385 -0.328699,0.866954 -0.09778,0.242556 -0.168874,0.489141 -0.212798,0.746371 -0.04907,0.111784 0.01553,0.404292 -0.04957,0.488988 -0.0127,0.01651 -0.03771,0.01826 -0.05656,0.02739 -1.121179,-0.05797 -0.08889,0.01029 2.612114,-1.556729 0.02333,-0.01354 -0.04807,0.02572 -0.07428,0.03234 -0.03094,0.0079 -0.06356,0.01466 -0.09522,0.01054 -0.08252,-0.01078 -0.171223,-0.07226 -0.238514,-0.110672 -0.25847,-0.182559 -0.411183,-0.46223 -0.588512,-0.715277 -0.198133,-0.257964 -0.371485,-0.523858 -0.510572,-0.817308 -0.13805,-0.291652 -0.221717,-0.603376 -0.325728,-0.907143 -0.114722,-0.237783 -0.147885,-0.497349 -0.169705,-0.756538 -0.05015,-0.299409 -0.116146,-0.595541 -0.197922,-0.88799 -0.121025,-0.404737 -0.194006,-0.820609 -0.295194,-1.23012 -0.07539,-0.208956 -0.05916,-0.449556 -0.158755,-0.65123 -0.05498,-0.111323 -0.142169,-0.198288 -0.222297,-0.291279 -0.455885,-0.492996 -0.791,-1.081714 -1.082752,-1.680357 -0.213119,-0.437816 -0.445836,-0.86784 -0.716953,-1.273463 -0.244691,-0.346439 -0.507316,-0.680523 -0.740443,-1.034807 -0.12754,-0.192254 -0.241448,-0.392858 -0.367878,-0.585826 -0.143263,-0.201357 -0.330981,-0.364849 -0.524799,-0.517023 -0.132442,-0.09616 -0.285959,-0.155585 -0.40283,-0.273596 -0.09346,-0.09437 -0.191187,-0.243123 -0.26474,-0.346438 -0.298056,-0.44467 -0.419439,-0.956711 -0.483022,-1.478211 -0.02224,-0.211731 -0.03309,-0.424002 -0.03723,-0.636739 -0.0036,-0.183622 -0.01831,-0.237475 0.04045,-0.413272 0.02278,-0.06813 0.05946,-0.130928 0.0892,-0.196393 0.241897,-0.445325 0.681829,-0.718398 1.090871,-0.997793 0.376149,-0.244894 0.751209,-0.490836 1.124091,-0.740385 0.04768,-0.02363 0.189135,-0.09743 0.143046,-0.0709 -0.863281,0.497012 -3.429972,2.024429 -2.594877,1.482475 0.915866,-0.594369 1.894053,-1.08936 2.837553,-1.639965 0.04019,-0.02345 0.07374,-0.05675 0.112896,-0.08185 0.08371,-0.05365 0.172122,-0.09984 0.256666,-0.152198 0.908594,-0.572921 2.172204,-1.253712 -2.315085,1.313564 -0.04862,0.02782 0.09755,-0.05511 0.146794,-0.08185 0.130533,-0.07086 0.129423,-0.06848 0.257915,-0.130252 0.226097,-0.115294 0.472699,-0.150336 0.723261,-0.165354 0.196394,-0.0079 0.348356,-0.02514 0.521804,0.07436 0.163229,0.106396 0.270417,0.252981 0.374686,0.411573 0.07668,0.125103 0.136674,0.258721 0.199896,0.390603 0.08565,0.180848 0.17267,0.356124 0.290837,0.518561 0.150889,0.212336 0.306061,0.421631 0.458539,0.632853 0.177065,0.216966 0.334051,0.447852 0.493727,0.67752 0.162033,0.230747 0.37903,0.413996 0.585576,0.604006 0.135164,0.13224 0.265086,0.274071 0.3704,0.431156 0.0529,0.122312 0.145831,0.21927 0.189518,0.345542 0.336589,1.490334 2.514567,-0.991024 3.008641,-1.291858 0.06299,-0.203518 0.06914,-0.413121 0.08037,-0.623779 0.02847,-0.291117 -0.01031,-0.597776 0.06034,-0.883366 0.01,-0.05873 0.04757,-0.144782 0.09088,-0.18934 0.01222,-0.01256 0.03319,-0.01366 0.04638,-0.02522 0.03509,-0.03082 0.04118,-0.06486 0.05675,-0.10671 0.01054,-0.01677 0.01763,-0.03618 0.03162,-0.05027 0.01329,-0.01337 0.03472,-0.01677 0.04813,-0.03001 0.06228,-0.06161 0.01628,-0.04861 0.0641,-0.123085 0.01029,-0.01601 0.02806,-0.02589 0.04208,-0.03882 0.01017,-0.01929 0.02032,-0.03858 0.03049,-0.05787 0.120263,-0.08047 -0.02042,0.02238 0.09553,-0.09661 0.05549,-0.05695 0.319644,-0.192752 0.198524,-0.122209 -0.881751,0.513555 -1.767972,1.019587 -2.65196,1.529381 0.149216,-0.107177 0.321921,-0.158605 0.501643,-0.186662 0.104938,-0.01084 0.0525,-0.0065 0.15727,-0.01313 0,0 2.607012,-1.881741 2.607012,-1.881741 v 0 c -0.112855,-6.49e-4 -0.05595,-6.49e-4 -0.170709,-3.7e-5 -0.20244,0.0047 -0.405603,0.019 -0.598049,0.08699 -0.965717,0.556022 -2.433944,0.941283 -3.108468,1.97206 -0.126744,0.154149 0.06438,-0.08502 -0.06627,0.104921 -0.04951,0.07198 -0.118287,0.128209 -0.142381,0.217878 -0.09886,0.118747 -0.102649,0.27409 -0.109174,0.422312 0.0065,0.288164 0.01521,0.578288 -0.02909,0.864225 -0.03559,0.20216 -0.08985,0.400733 -0.203689,0.57518 0.920452,-0.547812 1.811492,-1.147003 2.761355,-1.643437 0.07913,-0.04136 0.126743,0.334229 0.05213,0.117858 -0.0094,-0.02739 -0.01802,-0.05507 -0.02704,-0.0826 -0.0619,-0.144604 -0.152954,-0.268781 -0.231415,-0.404448 -0.125987,-0.179407 -0.287344,-0.328591 -0.451918,-0.47329 -0.198596,-0.166462 -0.378304,-0.358818 -0.53976,-0.560426 -0.18024,-0.209592 -0.314772,-0.451008 -0.493653,-0.661473 -0.145578,-0.213135 -0.305931,-0.41661 -0.438524,-0.638124 -0.09446,-0.151832 -0.177135,-0.309001 -0.242478,-0.475568 -0.05931,-0.15729 -0.151624,-0.2971 -0.241354,-0.438936 -0.134618,-0.189817 -0.232436,-0.35234 -0.432895,-0.490309 -0.21466,-0.203364 -0.359159,-0.266637 -0.661226,-0.252778 -0.268142,0.0049 -0.544499,-0.0036 -0.802148,0.07947 -0.149585,0.0561 -0.297778,0.115279 -0.436995,0.194191 -1.056382,0.598783 -2.105468,1.145334 -3.115144,1.791715 -0.212497,0.132858 -0.0483,0.02772 -0.259655,0.169983 -0.03846,0.02589 -0.15641,0.09953 -0.116033,0.07668 3.790009,-2.145425 3.222535,-1.85552 -0.237239,0.136318 -0.0444,0.02557 -0.08428,0.05813 -0.126422,0.08719 -0.350741,0.243172 -0.709744,0.474613 -1.058173,0.721081 -0.431534,0.317475 -0.850429,0.659418 -1.034271,1.177966 -0.02302,0.08323 -0.05279,0.164917 -0.06907,0.249681 -0.07179,0.37374 6.58e-4,0.765761 0.04077,1.138277 0.117122,0.544259 0.28747,1.078195 0.559277,1.568213 0.155709,0.300459 0.308538,0.650478 0.6478,0.783413 0.185661,0.111679 0.343225,0.249161 0.453792,0.436477 0.148346,0.178735 0.262427,0.384217 0.418067,0.557898 0.265717,0.326453 0.527093,0.655639 0.769306,0.999817 0.261232,0.401627 0.502789,0.813902 0.738297,1.230607 0.346175,0.581629 0.753068,1.128454 1.043836,1.74071 0.0599,0.113228 0.140005,0.231031 0.188141,0.350847 0.06463,0.160876 0.09323,0.332903 0.142359,0.498343 0.115623,0.402398 0.18603,0.815101 0.278904,1.222925 0.04664,0.292817 0.116374,0.58095 0.150483,0.875045 0.03656,0.283351 0.09707,0.564353 0.198475,0.832506 0.126957,0.298594 0.261679,0.59382 0.384304,0.894236 0.132755,0.316133 0.282006,0.626292 0.518288,0.88169 0.199317,0.284113 0.382677,0.586789 0.646284,0.818468 0.128018,0.09563 0.258483,0.21533 0.405959,0.281537 0.03563,0.01599 0.07883,0.04821 0.113377,0.03005 2.860062,-1.503567 2.547882,-0.560743 2.891934,-1.702754 0.01447,-0.192876 0.01083,-0.387444 0.04993,-0.578123 0.04973,-0.241966 0.141463,-0.471291 0.200496,-0.711005 0.10252,-0.279983 0.226699,-0.551909 0.324346,-0.833826 0.128356,-0.334547 0.282807,-0.657754 0.461439,-0.969201 0.239548,-0.399439 0.498079,-0.786856 0.762708,-1.170495 0.246191,-0.381427 0.511446,-0.746899 0.838071,-1.06655 0.163854,-0.18711 0.331091,-0.371469 0.461798,-0.584011 0.158174,-0.205163 0.320656,-0.403531 0.544308,-0.544164 0.967316,-0.613146 0.186839,-0.114598 -2.301946,1.293666 -0.07635,0.04321 0.150204,-0.09081 0.227995,-0.131448 0.253904,-0.132639 0.525706,-0.22928 0.776833,-0.367597 1.306711,-0.743276 2.704315,-1.311901 3.767295,-2.369268 0.277229,-0.266678 0.555859,-0.533252 0.810997,-0.820824 0.251333,-0.293797 0.476425,-0.596195 0.523592,-0.990385 0.074,-0.447169 0.125215,-0.896132 0.125913,-1.349998 0.049,-0.674186 0.135274,-1.35037 0.335175,-1.998943 0.01084,-0.04721 0.02595,-0.09365 0.03251,-0.141629 0.02793,-0.204181 -0.09733,-0.40215 -0.165643,-0.584234 -0.127197,-0.287773 -0.261386,-0.577186 -0.450193,-0.831349 -0.146879,-0.217028 -0.288003,-0.437352 -0.464272,-0.63307 -0.134088,-0.15043 -0.269846,-0.284805 -0.453181,-0.375461 -0.127079,-0.08572 -0.264728,-0.15666 -0.384909,-0.252568 -0.03435,-0.02742 -0.06376,-0.06052 -0.09804,-0.08804 -0.02923,-0.02346 -0.06143,-0.04306 -0.09216,-0.0646 -0.223915,-0.155851 -0.468687,-0.280578 -0.701865,-0.422387 -0.293948,-0.184359 -0.618006,-0.313782 -0.954403,-0.402516 -0.266896,-0.0578 -0.53901,-0.06584 -0.811778,-0.06091 -0.228676,0.01053 -0.450004,0.03971 -0.654707,0.150896 -1.114283,0.602763 -2.327853,1.089431 -3.276342,1.925804 -0.16901,0.10501 -0.321777,0.236781 -0.489866,0.344187 -0.183531,0.146116 -0.335094,0.322815 -0.510903,0.47713 0,0 3.001688,-1.227893 3.001688,-1.227893 z" />
    <ellipse
       style="fill:#ffaaaa;fill-rule:evenodd;stroke-width:0.264583"
       id="path3797"
       cx="48.342979"
       cy="85.270538"
       rx="2.7761407"
       ry="2.682034" />
    <ellipse
       style="fill:#ffaaaa;fill-rule:evenodd;stroke-width:0.264583"
       id="path3797-9"
       cx="63.870544"
       cy="85.599915"
       rx="2.7761407"
       ry="2.682034" />
  </g>
</svg>
