<?xml version="1.0" encoding="UTF-8" standalone="no"?>
<!-- Created with Inkscape (http://www.inkscape.org/) -->

<svg
   width="26.458334mm"
   height="52.916668mm"
   viewBox="0 0 26.458334 52.916668"
   version="1.1"
   id="svg935"
   inkscape:version="1.1 (c68e22c387, 2021-05-23)"
   sodipodi:docname="gigi5.svg"
   xmlns:inkscape="http://www.inkscape.org/namespaces/inkscape"
   xmlns:sodipodi="http://sodipodi.sourceforge.net/DTD/sodipodi-0.dtd"
   xmlns="http://www.w3.org/2000/svg"
   xmlns:svg="http://www.w3.org/2000/svg">
  <sodipodi:namedview
     id="namedview937"
     pagecolor="#ffffff"
     bordercolor="#666666"
     borderopacity="1.0"
     inkscape:pageshadow="2"
     inkscape:pageopacity="0.0"
     inkscape:pagecheckerboard="0"
     inkscape:document-units="mm"
     showgrid="false"
     inkscape:zoom="2.811532"
     inkscape:cx="23.652585"
     inkscape:cy="112.03856"
     inkscape:window-width="1920"
     inkscape:window-height="1001"
     inkscape:window-x="-9"
     inkscape:window-y="41"
     inkscape:window-maximized="1"
     inkscape:current-layer="layer1" />
  <defs
     id="defs932" />
  <g
     inkscape:label="Livello 1"
     inkscape:groupmode="layer"
     id="layer1"
     transform="translate(-43.120071,-39.393642)">
    <rect
       style="fill:#ffffff;fill-opacity:1;fill-rule:evenodd;stroke-width:0.264583"
       id="rect1018"
       width="52.916668"
       height="79.375"
       x="43.120071"
       y="39.393642"
       ry="6.2476593e-06" />
    <rect
       style="fill:#eddbb3;fill-rule:evenodd;stroke-width:0.264583;fill-opacity:1"
       id="rect1325"
       width="26.458334"
       height="52.916668"
       x="43.120071"
       y="39.393642" />
    <circle
       style="fill:#808000;fill-opacity:1;stroke-width:1.00012"
       id="path350"
       cx="56.349239"
       cy="50.896568"
       r="9.260417" />
    <rect
       style="fill:#808000;fill-opacity:1;fill-rule:nonzero;stroke-width:1.00012"
       id="rect454"
       width="18.463715"
       height="11.570459"
       x="47.130299"
       y="51.157131"
       ry="1.2856847e-06" />
    <circle
       style="fill:#808000;fill-opacity:1;fill-rule:nonzero;stroke-width:1.00012"
       id="path29144"
       cx="50.222496"
       cy="62.934837"
       r="3.0868056" />
    <circle
       style="fill:#808000;fill-opacity:1;fill-rule:nonzero;stroke-width:1.00012"
       id="circle39175"
       cx="56.376659"
       cy="62.934837"
       r="3.0868056" />
    <circle
       style="fill:#808000;fill-opacity:1;fill-rule:nonzero;stroke-width:1.00012"
       id="circle39177"
       cx="62.501778"
       cy="62.934837"
       r="3.0868056" />
    <path
       style="opacity:1;fill:#ff0000;fill-opacity:1;fill-rule:nonzero;stroke-width:4.85998"
       id="path28754"
       sodipodi:type="arc"
       sodipodi:cx="56.477669"
       sodipodi:cy="55.24086"
       sodipodi:rx="4.2176752"
       sodipodi:ry="3.9711881"
       sodipodi:start="0"
       sodipodi:end="3.1415927"
       sodipodi:arc-type="slice"
       d="m 60.695344,55.24086 a 4.2176752,3.9711881 0 0 1 -2.108838,3.43915 4.2176752,3.9711881 0 0 1 -4.217675,0 4.2176752,3.9711881 0 0 1 -2.108837,-3.43915 h 4.217675 z" />
    <path
       style="opacity:1;fill:#00ffff;fill-opacity:1;fill-rule:nonzero;stroke-width:23.7766"
       id="path28876"
       sodipodi:type="arc"
       sodipodi:cx="53.54113"
       sodipodi:cy="48.737896"
       sodipodi:rx="1.7528003"
       sodipodi:ry="2.5744252"
       sodipodi:start="0"
       sodipodi:end="6.2746702"
       sodipodi:arc-type="slice"
       d="m 55.29393,48.737896 a 1.7528003,2.5744252 0 0 1 -1.749069,2.574419 1.7528003,2.5744252 0 0 1 -1.756515,-2.563458 1.7528003,2.5744252 0 0 1 1.74159,-2.585334 1.7528003,2.5744252 0 0 1 1.763931,2.552452 l -1.752737,0.02192 z" />
    <path
       style="opacity:1;fill:#00ffff;fill-opacity:1;fill-rule:nonzero;stroke-width:23.7766"
       id="path29120"
       sodipodi:type="arc"
       sodipodi:cx="59.292511"
       sodipodi:cy="48.737896"
       sodipodi:rx="1.7528003"
       sodipodi:ry="2.5744252"
       sodipodi:start="0"
       sodipodi:end="6.2746702"
       sodipodi:arc-type="slice"
       d="m 61.045311,48.737896 a 1.7528003,2.5744252 0 0 1 -1.749069,2.574419 1.7528003,2.5744252 0 0 1 -1.756515,-2.563458 1.7528003,2.5744252 0 0 1 1.74159,-2.585334 1.7528003,2.5744252 0 0 1 1.763931,2.552452 l -1.752737,0.02192 z" />
    <path
       sodipodi:type="star"
       style="fill:#ffff00;fill-rule:evenodd"
       id="path4269"
       inkscape:flatsided="true"
       sodipodi:sides="6"
       sodipodi:cx="-105.99204"
       sodipodi:cy="118.08509"
       sodipodi:r1="28.906359"
       sodipodi:r2="25.033642"
       sodipodi:arg1="0.32564159"
       sodipodi:arg2="0.84924036"
       inkscape:rounded="0"
       inkscape:randomized="0"
       d="m -78.604838,127.33272 -21.702282,19.0942 -27.38721,-9.24763 -5.68492,-28.34183 21.70229,-19.094198 27.3872,9.247628 z"
       transform="matrix(0.26458333,0,0,0.26458333,88.38528,48.333757)" />
    <path
       sodipodi:type="star"
       style="fill:#cfffb6;fill-opacity:1;fill-rule:evenodd"
       id="path4375"
       inkscape:flatsided="true"
       sodipodi:sides="6"
       sodipodi:cx="-108.83746"
       sodipodi:cy="101.36822"
       sodipodi:r1="22.086428"
       sodipodi:r2="19.127407"
       sodipodi:arg1="0.26060239"
       sodipodi:arg2="0.78420117"
       inkscape:rounded="0"
       inkscape:randomized="0"
       d="m -87.496785,107.05906 -15.598755,15.63615 -21.34068,-5.69085 -5.74192,-21.32699 15.59876,-15.636146 21.340674,5.690848 z"
       transform="matrix(0.26458333,0,0,0.26458333,80.856763,47.863224)" />
    <path
       sodipodi:type="star"
       style="fill:#003dff;fill-opacity:1;fill-rule:evenodd"
       id="path4567"
       inkscape:flatsided="true"
       sodipodi:sides="6"
       sodipodi:cx="-106.70339"
       sodipodi:cy="63.666355"
       sodipodi:r1="21.045198"
       sodipodi:r2="18.225676"
       sodipodi:arg1="0.53172407"
       sodipodi:arg2="1.0553228"
       inkscape:rounded="0"
       inkscape:randomized="0"
       d="m -88.563815,74.336694 -18.310575,10.374165 -18.13958,-10.670339 0.171,-21.044504 18.31057,-10.374165 18.139581,10.67034 z"
       transform="matrix(0.26458333,0,0,0.26458333,80.198018,67.625581)" />
  </g>
</svg>
